<svg xmlns="http://www.w3.org/2000/svg" viewBox="0 0 28.45 28.35"><defs><style>.cls-1,.cls-2{fill:#fff;fill-rule:evenodd;}.cls-2{opacity:0.5;}</style></defs><g id="Camada_2" data-name="Camada 2"><g id="Layer_1" data-name="Layer 1"><path class="cls-1" d="M14.74,14.64l7.72,0c2,0,3.1,0,4.62,1.54,3,3.16.85,7.89-4.5,6.71,1.15,5.27-4.57,7.21-7,3.58-.94-1.42-.82-2.79-.86-4.42V14.64Z"/><path class="cls-2" d="M13.71,14.64,6,14.66c-2,0-3.1,0-4.62,1.54-3,3.16-.85,7.89,4.5,6.71-1.15,5.27,4.57,7.21,7,3.58.94-1.42.82-2.79.86-4.42V14.64Z"/><path class="cls-1" d="M13.71,13.71,6,13.69c-2,0-3.1,0-4.62-1.54-3-3.16-.85-7.89,4.5-6.71-1.15-5.27,4.57-7.21,7-3.58.94,1.42.82,2.79.86,4.41v7.44Z"/><path class="cls-2" d="M14.74,13.71l7.72,0c2,0,3.1,0,4.62-1.54,3-3.16.85-7.89-4.5-6.71C23.73.17,18-1.77,15.6,1.86c-.94,1.42-.82,2.79-.86,4.41v7.44Z"/></g></g></svg>