<svg xmlns="http://www.w3.org/2000/svg" viewBox="0 0 139.71 63.86"><defs><style>.cls-1{fill:#2e3191;}.cls-1,.cls-2{fill-rule:evenodd;}.cls-2{fill:#f48120;}</style></defs><g id="Camada_2" data-name="Camada 2"><g id="Layer_1" data-name="Layer 1"><path class="cls-1" d="M14.74,14.64l7.72,0c2,0,3.1,0,4.62,1.54,3,3.16.85,7.89-4.5,6.71,1.15,5.27-4.57,7.21-7,3.58-.94-1.42-.82-2.79-.86-4.42V14.64Z"/><path class="cls-2" d="M13.71,14.64,6,14.66c-2,0-3.1,0-4.62,1.54-3,3.16-.85,7.89,4.5,6.71-1.15,5.27,4.57,7.21,7,3.58.94-1.42.82-2.79.86-4.42V14.64Z"/><path class="cls-1" d="M13.71,13.71,6,13.69c-2,0-3.1,0-4.62-1.54-3-3.16-.85-7.89,4.5-6.71-1.15-5.27,4.57-7.21,7-3.58.94,1.42.82,2.79.86,4.41v7.44Z"/><path class="cls-2" d="M14.74,13.71l7.72,0c2,0,3.1,0,4.62-1.54,3-3.16.85-7.89-4.5-6.71C23.73.17,18-1.77,15.6,1.86c-.94,1.42-.82,2.79-.86,4.41v7.44Z"/><polygon class="cls-2" points="87.4 47.16 100.1 47.16 111.12 33.28 98.43 33.28 87.4 47.16 87.4 47.16"/><polygon class="cls-2" points="74.71 63.33 87.4 63.33 98.43 49.28 85.73 49.28 74.71 63.33 74.71 63.33"/><path class="cls-1" d="M44,43l-3.58,8.9h4.95L44,42.94v0ZM25,63.41,39.68,33.24H50.76l6.18,30.17H47.21l-.71-4H37.06l-2.17,4Zm36.52,0,4.24-30.17H75.6L71.35,63.41Zm65.19-20.47-3.59,8.94h4.94l-1.35-8.94ZM107.8,63.41l14.65-30.17h11.08l6.18,30.17H130l-.71-4h-9.44l-2.17,4Z"/><polygon class="cls-1" points="86.13 49.3 98.41 49.3 106.82 63.24 94.54 63.24 86.13 49.3 86.13 49.3"/><polygon class="cls-1" points="79.29 33.12 91.14 33.12 99.25 47.16 87.4 47.16 79.29 33.12 79.29 33.12"/><path class="cls-1" d="M25.32,34.32l-.94,8.88c-3.62-5-12-1.55-12.65,4.66-.83,7.88,7.23,9.72,11.61,5.08l-.94,8.89a21.47,21.47,0,0,1-3.86,1.48,15.24,15.24,0,0,1-3.76.54,14.47,14.47,0,0,1-4.28-.49A10.45,10.45,0,0,1,7,61.68a12.27,12.27,0,0,1-4.29-5.53,16,16,0,0,1-.87-7.61A18.54,18.54,0,0,1,3.6,42.3a18.12,18.12,0,0,1,3.76-5.14,15.85,15.85,0,0,1,4.94-3.35,15.52,15.52,0,0,1,5.8-1.2,13.93,13.93,0,0,1,3.66.39,16.2,16.2,0,0,1,3.56,1.32Z"/><path class="cls-1" d="M29.89,25.62l3.7-19.8H41l-2.58,13.7h6.18l-1.16,6.1Zm22.59-8.83a1.78,1.78,0,0,0-1.38.65,2.44,2.44,0,0,0-.56,1.62A1.54,1.54,0,0,0,51,20.18,1.43,1.43,0,0,0,52,20.6a1.76,1.76,0,0,0,1.4-.63A2.44,2.44,0,0,0,54,18.33a1.55,1.55,0,0,0-.4-1.13,1.48,1.48,0,0,0-1.1-.41ZM44.3,19.64a8.56,8.56,0,0,1,.59-3.21,7.74,7.74,0,0,1,1.74-2.63,8.6,8.6,0,0,1,2.87-1.93,8.91,8.91,0,0,1,3.43-.65A7.4,7.4,0,0,1,58.19,13a6.29,6.29,0,0,1,2,4.86,7.76,7.76,0,0,1-.49,2.74,7.91,7.91,0,0,1-1.42,2.44,8.25,8.25,0,0,1-3,2.27,9.24,9.24,0,0,1-3.82.8,7.3,7.3,0,0,1-5.11-1.84,6.1,6.1,0,0,1-2-4.67Zm16.67,6,1.67-8.95H60.86l1-5H63.6l.72-3.91H71l-.73,3.91h2.06l-1,5H69.32l-1.68,9Zm16.78-8.78h3.4v-.2a1.49,1.49,0,0,0-.36-1.05,1.3,1.3,0,0,0-1-.38,2,2,0,0,0-1.26.39,2.65,2.65,0,0,0-.8,1.24Zm9.06,2.6H77.39a2.53,2.53,0,0,0,.46,1.63,1.49,1.49,0,0,0,1.26.58,1.94,1.94,0,0,0,1-.27,4,4,0,0,0,1-1l5,1.05a8.35,8.35,0,0,1-7.83,4.69,7.15,7.15,0,0,1-5.08-1.84,6.14,6.14,0,0,1-2-4.7,8.53,8.53,0,0,1,.59-3.19,7.75,7.75,0,0,1,1.68-2.62,8.84,8.84,0,0,1,2.86-1.94,9.12,9.12,0,0,1,3.44-.67A7.4,7.4,0,0,1,84.93,13a5.77,5.77,0,0,1,2,4.49c0,.35,0,.68,0,1s0,.66-.08,1Zm-.4,6.18,2.65-14h6.12l-.48,1.9a5.06,5.06,0,0,1,1.69-1.77,4.1,4.1,0,0,1,2.19-.58,4.6,4.6,0,0,1,.69.06,9.26,9.26,0,0,1,.94.16l-1.06,5.71a11,11,0,0,0-1.27-.36,4.85,4.85,0,0,0-1-.12,2.36,2.36,0,0,0-1.74.59,4.24,4.24,0,0,0-.86,2.16l-1.15,6.23ZM105,10.92a3.58,3.58,0,0,1-2.5-.91,2.93,2.93,0,0,1-1-2.25,3.23,3.23,0,0,1,1.19-2.49,4.19,4.19,0,0,1,2.86-1,3.61,3.61,0,0,1,2.51.9,2.88,2.88,0,0,1,1,2.25,3.26,3.26,0,0,1-1.19,2.5A4.19,4.19,0,0,1,105,10.92Zm-6.33,14.7,2.6-14H108l-2.62,14Zm17.81-8.75a1.65,1.65,0,0,0-1.33.63,2.49,2.49,0,0,0-.52,1.61,1.62,1.62,0,0,0,.38,1.16,1.37,1.37,0,0,0,1.08.41,1.83,1.83,0,0,0,1.42-.6,2.19,2.19,0,0,0,.55-1.55,1.64,1.64,0,0,0-.43-1.21,1.51,1.51,0,0,0-1.15-.45Zm2.87-5.23h6.52l-2.63,14H117l.5-1.88a6.23,6.23,0,0,1-1.94,1.79,4.93,4.93,0,0,1-6.09-1.14A6.65,6.65,0,0,1,108,19.91a9.91,9.91,0,0,1,.52-3.12A9.53,9.53,0,0,1,110,14a7.44,7.44,0,0,1,2.37-2.11,5.72,5.72,0,0,1,2.8-.72,4.34,4.34,0,0,1,2.34.61,5,5,0,0,1,1.69,1.85l.24-2Zm5,12.15,2.52-4.12a9.7,9.7,0,0,0,2,1.55,3.85,3.85,0,0,0,1.79.54.85.85,0,0,0,.54-.16.51.51,0,0,0,.21-.42c0-.26-.32-.56-1-.89l-.1,0-1.07-.55a5.19,5.19,0,0,1-1.87-1.54,3.5,3.5,0,0,1-.6-2,4.36,4.36,0,0,1,1.69-3.54,6.66,6.66,0,0,1,4.37-1.39,9.75,9.75,0,0,1,2.78.41,12.42,12.42,0,0,1,2.81,1.28l-2.26,3.76a7.16,7.16,0,0,0-1.38-1,2.56,2.56,0,0,0-1.22-.36.84.84,0,0,0-.56.18.53.53,0,0,0-.22.43q0,.33.81.69l.36.16.85.39a4.44,4.44,0,0,1,1.92,1.48,3.81,3.81,0,0,1,.62,2.24,4.76,4.76,0,0,1-1.76,3.86A7.05,7.05,0,0,1,131,26.15a9.67,9.67,0,0,1-3.2-.59,15.71,15.71,0,0,1-3.45-1.77Z"/></g></g></svg>